PathFileType	4	(X/Y/Z)	/Users/niels/Desktop/University/Third Semester/Perception and Action/Exam/Gymnastics Motion Tracking/Code for Gym Tracking/Analyzed Data/Webcam_Backflip/id2002_2_baseline_Sports2D/id2002_2_baseline_Sports2D_px_person00.trc
DataRate	CameraRate	NumFrames	NumMarkers	Units	OrigDataRate	OrigDataStartFrame	OrigNumFrames
29.798657718120804	29.798657718120804	12	22	m	29.798657718120804	93	149
Frame#	Time	Hip			RHip			RKnee			RAnkle			RBigToe			RSmallToe			RHeel			LHip			LKnee			LAnkle			LBigToe			LSmallToe			LHeel			Neck			Head			Nose			RShoulder			RElbow			RWrist			LShoulder			LElbow			LWrist		
		X1	Y1	Z1	X2	Y2	Z2	X3	Y3	Z3	X4	Y4	Z4	X5	Y5	Z5	X6	Y6	Z6	X7	Y7	Z7	X8	Y8	Z8	X9	Y9	Z9	X10	Y10	Z10	X11	Y11	Z11	X12	Y12	Z12	X13	Y13	Z13	X14	Y14	Z14	X15	Y15	Z15	X16	Y16	Z16	X17	Y17	Z17	X18	Y18	Z18	X19	Y19	Z19	X20	Y20	Z20	X21	Y21	Z21	X22	Y22	Z22
93	3.1209459459459463	1.06070519954305	-0.6980194577177233	0.0	1.0014011518760138	-0.7033483141425012	0.0	0.978111598003313	-1.041839319242196	0.0	0.959841499578061	-1.0777033652386847	0.0			0.0			0.0			0.0	1.1161669403623746	-0.7127247529579123	0.0	1.0746357391442327	-1.0389859363107505	0.0	1.0574275708212706	-1.0727428268647021	0.0			0.0			0.0			0.0	1.0870440330718065	-0.22205561304061444	0.0	1.1751798977869585	-0.027405820757516717	0.0	1.1732323820738473	-0.14755630966281605	0.0	0.9603395939620115	-0.26220002851382773	0.0	0.8816489731361349	-0.49590350002572686	0.0	0.8921083707166959	-0.7389761498014177	0.0	1.1601064190937584	-0.3030447426219531	0.0	1.2126090001192982	-0.5205566413167145	0.0	1.190335482785501	-0.35111989142993943	0.0
94	3.154504504504505	1.0607589103459882	-0.6966449169001304	0.0	1.0017698207123056	-0.7020061274656073	0.0	0.9799295209514312	-1.0417429629930146	0.0	0.9596598246811203	-1.0775254914770014	0.0			0.0			0.0			0.0	1.1171102937758137	-0.7113558121133853	0.0	1.074109707701865	-1.038695998586169	0.0	1.0571424389894168	-1.0728985577321675	0.0			0.0			0.0			0.0	1.0870070507202525	-0.22099000210500835	0.0	1.1756188175467273	-0.027042913666065385	0.0	1.173365499617171	-0.14688068855522213	0.0	0.9598354962233699	-0.2623213046831119	0.0	0.8817582806454823	-0.4953323187689726	0.0	0.8879186747425697	-0.740670905389183	0.0	1.1603295709743118	-0.3020982065558189	0.0	1.2107546441088288	-0.5211874945684369	0.0	1.1898062929790565	-0.351885609422165	0.0
95	3.1880630630630633	1.060911739230942	-0.695298545769701	0.0	1.0021993652151342	-0.7006818559577923	0.0	0.9819221418663792	-1.0414180550665808	0.0	0.9599456844085622	-1.0780347184719925	0.0			0.0			0.0			0.0	1.118086234862475	-0.7100360690696187	0.0	1.072944114625129	-1.0384771190671278	0.0	1.0569728759089814	-1.073760004613778	0.0			0.0			0.0			0.0	1.0869318600543056	-0.22008824328807103	0.0	1.1760591000897456	-0.02679462633228149	0.0	1.1732461556009932	-0.1464699765826929	0.0	0.9591929826491093	-0.26238551758507744	0.0	0.8820254310847526	-0.4946749611334142	0.0	0.88509852328171	-0.7416304275088514	0.0	1.1606850554660397	-0.30123308399693705	0.0	1.2088910036880682	-0.522055030348794	0.0	1.1892568101356156	-0.3525446762734751	0.0
96	3.221621621621622	1.0611202956639305	-0.6943814713494453	0.0	1.0026600616382948	-0.6997375351820913	0.0	0.9837097329598165	-1.0409365193559446	0.0	0.9606666393978702	-1.0789954209632782	0.0			0.0			0.0			0.0	1.1188292753164655	-0.7090528913512021	0.0	1.0712862309606026	-1.0384073047705078	0.0	1.0570136699101849	-1.0749520895888922	0.0			0.0			0.0			0.0	1.08678326032655	-0.21947470714074752	0.0	1.176484263460981	-0.026648825928216907	0.0	1.1730385615675722	-0.1463990932893965	0.0	0.9585700251059288	-0.26233257096678486	0.0	0.8824351742081954	-0.49405162540532965	0.0	0.8837572575927143	-0.7420087116492325	0.0	1.1609299588791377	-0.30051478427138006	0.0	1.2070008391700733	-0.5230290728389781	0.0	1.1886759278419827	-0.353063373911279	0.0
97	3.2551801801801807	1.0611354667880928	-0.694097928208354	0.0	1.0029284916348526	-0.6993415479400095	0.0	0.9849535625294575	-1.040274374783787	0.0	0.9615129250769124	-1.0800300280156756	0.0			0.0			0.0			0.0	1.1188962526023603	-0.7085493659083371	0.0	1.0692455268429608	-1.0382707545730125	0.0	1.056743212255752	-1.0760038869960415	0.0			0.0			0.0			0.0	1.0865702968138466	-0.21924884030401823	0.0	1.1769454766764798	-0.026651548048753245	0.0	1.1730173564262534	-0.14665108152556233	0.0	0.9581603881601685	-0.26212475264847085	0.0	0.8829859477249994	-0.49354400802170273	0.0	0.8839904285035896	-0.7419849966870795	0.0	1.1607351720661954	-0.30005312938676687	0.0	1.2050350638678162	-0.5239619675505363	0.0	1.1880928984107237	-0.3534798911414777	0.0
98	3.288738738738739	1.0607246352814994	-0.6943829297388225	0.0	1.002792553991479	-0.6994617442989045	0.0	0.9854237457418915	-1.039349875611483	0.0	0.9620648635274837	-1.0808359142945112	0.0			0.0			0.0			0.0	1.1179829939289925	-0.7085263412928773	0.0	1.066895781176543	-1.0377415895577653	0.0	1.0555007808718835	-1.0765905827877773	0.0			0.0			0.0			0.0	1.0863207282568272	-0.21940477291049063	0.0	1.1774872308541622	-0.026866853998195956	0.0	1.1734414421496426	-0.1471536124347834	0.0	0.9580937201370009	-0.2617801302169201	0.0	0.8836850017393136	-0.49320012845465516	0.0	0.885916281536738	-0.7417521109827987	0.0	1.1597341915999635	-0.2999957133110511	0.0	1.2029388203399065	-0.5247764391302094	0.0	1.1875383997677669	-0.35391511971455125	0.0
99	3.3222972972972977	1.0597507888022137	-0.6950287722910746	0.0	1.002168364319494	-0.6999804026239572	0.0	0.9850600857915965	-1.0381141598042878	0.0	0.9620259893355728	-1.0812848603655205	0.0			0.0			0.0			0.0	1.1159736945402885	-0.708916245285193	0.0	1.0643163443293102	-1.0366044599190372	0.0	1.0528836228637912	-1.0766892205991396	0.0			0.0			0.0			0.0	1.0860056508588494	-0.21981294171470567	0.0	1.1781267779558833	-0.027363520433961043	0.0	1.1744270699582895	-0.14790977922582493	0.0	0.9584106029536943	-0.2614076539023937	0.0	0.8845637257599243	-0.49306932758786504	0.0	0.8896511070461592	-0.7414611488880031	0.0	1.157567848972619	-0.30045387684390895	0.0	1.200695029502942	-0.5254309984837933	0.0	1.1870085558276238	-0.3544627650959279	0.0
100	3.3558558558558564	1.0581421909058117	-0.6958101773625077	0.0	1.0010723847239114	-0.7007257001947022	0.0	0.9840358183586314	-1.0366277856175004	0.0	0.9614074877506547	-1.0813463049112713	0.0			0.0			0.0			0.0	1.1128841811956804	-0.7095781928643236	0.0	1.0615398736052486	-1.0348622024236913	0.0	1.0487714365395426	-1.0764736048169805	0.0			0.0			0.0			0.0	1.0855294842692422	-0.22031777133087221	0.0	1.1789044780784306	-0.028221262641173247	0.0	1.1759239266259196	-0.14904933250145608	0.0	0.9590963601036412	-0.26117208905515055	0.0	0.885661123234492	-0.49323703325445534	0.0	0.8951839900238566	-0.7411491549589475	0.0	1.154038202702503	-0.3014180680986277	0.0	1.198326442768617	-0.5258744397177786	0.0	1.18648088164765	-0.3551072753778277	0.0
101	3.3894144144144147	1.0560139292376696	-0.6965704620663273	0.0	0.9996421828840185	-0.7015470008659195	0.0	0.98274655179431	-1.035066945351128	0.0	0.9605593378670588	-1.081093988538556	0.0			0.0			0.0			0.0	1.1089884931867717	-0.7103362154204973	0.0	1.0586605959830595	-1.032787158348188	0.0	1.0435403319845085	-1.0761344539573312	0.0			0.0			0.0			0.0	1.0848250143553295	-0.2208662555741493	0.0	1.1799177359490458	-0.029527714731707257	0.0	1.177810873360564	-0.15075237180886683	0.0	0.9601090580993548	-0.26118895161025907	0.0	0.8870307623421516	-0.4937811303517397	0.0	0.9022872263070267	-0.7407969534047897	0.0	1.1493411670005718	-0.302724718484354	0.0	1.195894478297362	-0.5261072113419403	0.0	1.185959196984586	-0.3557929316564391	0.0
102	3.4229729729729734	1.0537374775599784	-0.6972612585422957	0.0	0.9981398223092105	-0.7024180527848652	0.0	0.9816624840509995	-1.0336320702045514	0.0	0.9599826619464681	-1.0807839684511702	0.0			0.0			0.0			0.0	1.104850660582299	-0.711099876695618	0.0	1.0560545215858859	-1.0308087849192218	0.0	1.0382629438991577	-1.0758520365271558	0.0			0.0			0.0			0.0	1.0839419709655558	-0.22153639003317907	0.0	1.1812644470672256	-0.03132325773648212	0.0	1.179990438482822	-0.15314201023729243	0.0	0.9613988051765583	-0.261469389570155	0.0	0.8887618261787013	-0.4946885772735296	0.0	0.9105853491060462	-0.7404365922671257	0.0	1.1441273392842988	-0.30413220874751723	0.0	1.1934842427162797	-0.5262301304707799	0.0	1.1855122247721597	-0.3564915835835017	0.0
103	3.456531531531532	1.0517011613927805	-0.6978597312872282	0.0	0.9967969217786298	-0.7033705381947853	0.0	0.9811004013798513	-1.032470644023019	0.0	0.9600198678580666	-1.0806882606452162	0.0			0.0			0.0			0.0	1.1010667166119166	-0.7118439284372186	0.0	1.0542146814731144	-1.029276709338588	0.0	1.034176777267752	-1.0757665730563708	0.0			0.0			0.0			0.0	1.0830180745894025	-0.22245117320146365	0.0	1.1829429553503366	-0.03354564112333747	0.0	1.1823531630163306	-0.15618798565131106	0.0	0.9628935602342072	-0.26196510183247046	0.0	0.8909427881786344	-0.4958527253012713	0.0	0.9197003964271431	-0.7401452513814257	0.0	1.1392649237417378	-0.30545084052817467	0.0	1.1911387738542811	-0.5264020611842597	0.0	1.1852745456906677	-0.35716769666203574	0.0
104	3.4900900900900904	1.0500543252037107	-0.6982828930345056	0.0	0.9957126504345423	-0.7043728811152353	0.0	0.9810942806571741	-1.0317335340999991	0.0	0.9606868506954661	-1.080807444940994	0.0			0.0			0.0			0.0	1.0980124475072228	-0.7124841335143703	0.0	1.053343230394631	-1.028421975798964	0.0	1.0319296347923843	-1.0758403109897197	0.0			0.0			0.0			0.0	1.0821799897495523	-0.22367099098189025	0.0	1.1848245371501107	-0.03607524345222479	0.0	1.1846989888857078	-0.15966975431190936	0.0	0.964470855461395	-0.26261025334344057	0.0	0.8936125360207151	-0.497144944288027	0.0	0.9293292420562035	-0.7399720957413158	0.0	1.1354151978104299	-0.30658027972073326	0.0	1.1888011777930465	-0.5267448720331915	0.0	1.1853784576106452	-0.3577653650900626	0.0
